<svg width="1920" height="2013" viewBox="0 0 1920 2013" fill="none" xmlns="http://www.w3.org/2000/svg">
<path d="M1920 26.8735V2013H0V26.8735C40 26.8735 40 0 80 0C120 0 120 26.8735 160 26.8735C200 26.8735 200 0 240 0C280 0 280 26.8735 320 26.8735C360 26.8735 360 0 400 0C440 0 440 26.8735 480 26.8735C520 26.8735 520 0 559.99 0C599.98 0 599.99 26.8735 639.99 26.8735C679.99 26.8735 679.99 0 719.99 0C759.99 0 759.99 26.8735 799.99 26.8735C839.99 26.8735 840 0 880 0C920 0 920 26.8735 960 26.8735C1000 26.8735 1000 0 1040 0C1080 0 1080 26.8735 1120 26.8735C1160 26.8735 1160 0 1200 0C1240 0 1240 26.8735 1280 26.8735C1320 26.8735 1320 0 1360 0C1400 0 1400 26.8735 1440 26.8735C1480 26.8735 1480 0 1519.99 0C1559.98 0 1559.99 26.8735 1599.99 26.8735C1639.99 26.8735 1639.99 0 1679.99 0C1719.99 0 1719.99 26.8735 1759.99 26.8735C1799.99 26.8735 1800 0 1840 0C1880 0 1880 26.8735 1920 26.8735Z" fill="white"/>
</svg>
