<svg width="73" height="77" viewBox="0 0 73 77" fill="none" xmlns="http://www.w3.org/2000/svg">
<path d="M65.0015 21.6668C60.2179 17.534 53.3229 15.6595 46.5598 16.6537C43.7361 17.0691 41.4883 17.9014 39.4458 19.3095V3.84889C39.4458 2.19337 38.1037 0.849752 36.4467 0.849752C34.7897 0.849752 33.4476 2.19337 33.4476 3.84889V5.35296C30.045 2.15138 25.4684 0.189941 20.4388 0.189941H13.6068C11.9512 0.189941 10.6076 1.53206 10.6076 3.18908V9.55626C10.6076 12.6934 11.3889 15.7705 12.8495 18.5072C11.0395 19.3335 9.36447 20.3936 7.89039 21.6668C4.46687 24.6254 0.383545 30.2038 0.383545 39.9795C0.383545 48.3591 3.14125 57.376 7.95038 64.7164C13.0519 72.5022 19.593 76.9679 25.8972 76.9679C29.2638 76.9679 31.882 76.0097 34.3878 73.8593C35.562 72.8516 37.333 72.8516 38.5056 73.8593C41.0114 76.0097 43.6296 76.9679 46.9962 76.9679C51.0135 76.9679 55.1658 75.1579 59.0032 71.7359C60.2389 70.6322 60.3468 68.7368 59.2447 67.5011C58.1425 66.2655 56.2455 66.156 55.0099 67.2597C52.2897 69.686 49.5185 70.9696 46.9962 70.9696C44.7993 70.9696 43.5757 70.3053 42.412 69.3081C40.755 67.885 38.6361 67.1023 36.4467 67.1023C34.2573 67.1023 32.1384 67.885 30.4814 69.3081C29.3177 70.3053 28.0941 70.9696 25.8972 70.9696C21.7149 70.9696 16.8818 67.4037 12.9679 61.4294C8.84412 55.1342 6.38182 47.116 6.38182 39.9795C6.38182 34.0367 8.25929 29.2741 11.8118 26.206C15.2968 23.1963 20.3983 21.8452 25.4609 22.589C27.7192 22.9204 29.2473 23.5532 30.7378 24.7724C34.0459 27.4776 38.8475 27.4776 42.1556 24.7724C43.6461 23.5532 45.1742 22.9204 47.4326 22.589C52.4951 21.8452 57.5966 23.1963 61.0816 26.206C64.6341 29.2741 66.5116 34.0367 66.5116 39.9795C66.5116 44.5067 65.5474 49.3623 63.7239 54.0215C63.1196 55.5646 63.8798 57.3041 65.4229 57.9069C66.9645 58.5112 68.7055 57.7509 69.3083 56.2079C71.4032 50.8604 72.5099 45.2475 72.5099 39.9795C72.5099 30.2038 68.4265 24.6254 65.0015 21.6668ZM26.3336 16.6537C23.7858 16.2788 21.2201 16.3118 18.7563 16.7197C17.3617 14.6053 16.6059 12.11 16.6059 9.55626V6.18822H20.4388C27.6127 6.18822 33.4476 12.023 33.4476 19.197V19.3095C31.4052 17.9014 29.1573 17.0691 26.3336 16.6537Z" fill="white"/>
<path d="M29.1481 49.6787C27.491 49.6787 26.1489 48.3366 26.1489 46.6796V44.3597C26.1489 42.7027 27.491 41.3606 29.1481 41.3606C30.8051 41.3606 32.1472 42.7027 32.1472 44.3597V46.6796C32.1472 48.3366 30.8051 49.6787 29.1481 49.6787Z" fill="white"/>
<path d="M43.745 49.6787C42.088 49.6787 40.7458 48.3366 40.7458 46.6796V44.3597C40.7458 42.7027 42.088 41.3606 43.745 41.3606C45.402 41.3606 46.7441 42.7027 46.7441 44.3597V46.6796C46.7441 48.3366 45.402 49.6787 43.745 49.6787Z" fill="white"/>
</svg>
