<svg width="27" height="27" viewBox="0 0 27 27" fill="none" xmlns="http://www.w3.org/2000/svg">
<path d="M25.0945 0H1.796C1.41414 0 1.04792 0.151692 0.777907 0.421706C0.507894 0.69172 0.356201 1.05794 0.356201 1.43979V24.7383C0.356201 24.9274 0.393443 25.1146 0.465799 25.2893C0.538156 25.464 0.64421 25.6227 0.777907 25.7564C0.911605 25.8901 1.07033 25.9961 1.24501 26.0685C1.41969 26.1408 1.60692 26.1781 1.796 26.1781H14.3353V16.0341H10.9321V12.1074H14.3353V9.16233C14.2648 8.47091 14.3464 7.77244 14.5745 7.11591C14.8025 6.45937 15.1714 5.86068 15.6553 5.36181C16.1392 4.86294 16.7264 4.47598 17.3757 4.22807C18.0249 3.98016 18.7206 3.8773 19.4138 3.92671C20.4326 3.92044 21.4509 3.97289 22.4636 4.08378V7.61782H20.3824C18.7332 7.61782 18.4191 8.40316 18.4191 9.54191V12.0681H22.3458L21.8353 15.9948H18.4191V26.1781H25.0945C25.2836 26.1781 25.4708 26.1408 25.6455 26.0685C25.8202 25.9961 25.9789 25.8901 26.1126 25.7564C26.2463 25.6227 26.3523 25.464 26.4247 25.2893C26.497 25.1146 26.5343 24.9274 26.5343 24.7383V1.43979C26.5343 1.25072 26.497 1.06349 26.4247 0.888809C26.3523 0.714125 26.2463 0.555403 26.1126 0.421706C25.9789 0.288009 25.8202 0.181954 25.6455 0.109598C25.4708 0.0372415 25.2836 0 25.0945 0Z" fill="black"/>
</svg>
