<svg width="28" height="28" viewBox="0 0 28 28" fill="none" xmlns="http://www.w3.org/2000/svg">
<path d="M25.2264 8.652V1.4C25.2264 1.0287 25.0786 0.672601 24.8154 0.41005C24.5522 0.1475 24.1953 0 23.8231 0C23.4509 0 23.094 0.1475 22.8308 0.41005C22.5677 0.672601 22.4198 1.0287 22.4198 1.4V8.652C21.6071 8.94629 20.9049 9.48308 20.4087 10.1894C19.9124 10.8958 19.6462 11.7374 19.6462 12.6C19.6462 13.4626 19.9124 14.3042 20.4087 15.0106C20.9049 15.7169 21.6071 16.2537 22.4198 16.548V26.6C22.4198 26.9713 22.5677 27.3274 22.8308 27.59C23.094 27.8525 23.4509 28 23.8231 28C24.1953 28 24.5522 27.8525 24.8154 27.59C25.0786 27.3274 25.2264 26.9713 25.2264 26.6V16.548C26.0391 16.2537 26.7413 15.7169 27.2376 15.0106C27.7338 14.3042 28 13.4626 28 12.6C28 11.7374 27.7338 10.8958 27.2376 10.1894C26.7413 9.48308 26.0391 8.94629 25.2264 8.652ZM23.8231 14C23.5456 14 23.2742 13.9179 23.0435 13.7641C22.8127 13.6102 22.6328 13.3916 22.5266 13.1358C22.4204 12.8799 22.3926 12.5984 22.4468 12.3269C22.5009 12.0553 22.6346 11.8058 22.8308 11.6101C23.0271 11.4143 23.2771 11.2809 23.5493 11.2269C23.8215 11.1729 24.1037 11.2006 24.3601 11.3066C24.6165 11.4125 24.8357 11.592 24.9899 11.8222C25.1441 12.0524 25.2264 12.3231 25.2264 12.6C25.2264 12.9713 25.0786 13.3274 24.8154 13.5899C24.5522 13.8525 24.1953 14 23.8231 14ZM15.4033 17.052V1.4C15.4033 1.0287 15.2555 0.672601 14.9923 0.41005C14.7291 0.1475 14.3722 0 14 0C13.6278 0 13.2709 0.1475 13.0077 0.41005C12.7445 0.672601 12.5967 1.0287 12.5967 1.4V17.052C11.784 17.3463 11.0818 17.8831 10.5855 18.5894C10.0893 19.2958 9.82311 20.1374 9.82311 21C9.82311 21.8626 10.0893 22.7042 10.5855 23.4106C11.0818 24.1169 11.784 24.6537 12.5967 24.948V26.6C12.5967 26.9713 12.7445 27.3274 13.0077 27.59C13.2709 27.8525 13.6278 28 14 28C14.3722 28 14.7291 27.8525 14.9923 27.59C15.2555 27.3274 15.4033 26.9713 15.4033 26.6V24.948C16.216 24.6537 16.9182 24.1169 17.4145 23.4106C17.9107 22.7042 18.1769 21.8626 18.1769 21C18.1769 20.1374 17.9107 19.2958 17.4145 18.5894C16.9182 17.8831 16.216 17.3463 15.4033 17.052ZM14 22.4C13.7225 22.4 13.4511 22.3179 13.2204 22.1641C12.9896 22.0102 12.8097 21.7916 12.7035 21.5358C12.5973 21.2799 12.5695 20.9984 12.6237 20.7269C12.6778 20.4553 12.8115 20.2058 13.0077 20.01C13.204 19.8143 13.454 19.6809 13.7262 19.6269C13.9984 19.5729 14.2806 19.6006 14.537 19.7066C14.7934 19.8125 15.0126 19.992 15.1668 20.2222C15.321 20.4524 15.4033 20.7231 15.4033 21C15.4033 21.3713 15.2555 21.7274 14.9923 21.99C14.7291 22.2525 14.3722 22.4 14 22.4ZM5.58019 5.852V1.4C5.58019 1.0287 5.43235 0.672601 5.16918 0.41005C4.90601 0.1475 4.54907 0 4.17689 0C3.80471 0 3.44778 0.1475 3.18461 0.41005C2.92144 0.672601 2.77359 1.0287 2.77359 1.4V5.852C1.96087 6.14629 1.25867 6.68308 0.762439 7.38943C0.266206 8.09578 0 8.93743 0 9.8C0 10.6626 0.266206 11.5042 0.762439 12.2106C1.25867 12.9169 1.96087 13.4537 2.77359 13.748V26.6C2.77359 26.9713 2.92144 27.3274 3.18461 27.59C3.44778 27.8525 3.80471 28 4.17689 28C4.54907 28 4.90601 27.8525 5.16918 27.59C5.43235 27.3274 5.58019 26.9713 5.58019 26.6V13.748C6.39292 13.4537 7.09511 12.9169 7.59135 12.2106C8.08758 11.5042 8.35379 10.6626 8.35379 9.8C8.35379 8.93743 8.08758 8.09578 7.59135 7.38943C7.09511 6.68308 6.39292 6.14629 5.58019 5.852ZM4.17689 11.2C3.89935 11.2 3.62803 11.1179 3.39726 10.9641C3.16649 10.8102 2.98662 10.5916 2.88041 10.3358C2.7742 10.0799 2.74641 9.79845 2.80056 9.52687C2.8547 9.2553 2.98835 9.00584 3.18461 8.81005C3.38086 8.61426 3.63091 8.48092 3.90312 8.4269C4.17534 8.37288 4.45749 8.40061 4.71391 8.50657C4.97033 8.61253 5.1895 8.79197 5.34369 9.0222C5.49789 9.25243 5.58019 9.52311 5.58019 9.8C5.58019 10.1713 5.43235 10.5274 5.16918 10.7899C4.90601 11.0525 4.54907 11.2 4.17689 11.2Z" fill="#4D7867"/>
</svg>
