<svg width="91" height="77" viewBox="0 0 91 77" fill="none" xmlns="http://www.w3.org/2000/svg">
<path d="M45.461 76.778C45.2215 76.778 44.9873 76.7518 44.7654 76.7063C44.4665 76.6521 44.2532 76.6032 43.8739 76.3952C43.7026 76.3095 43.5453 76.2117 43.402 76.1085C42.6119 75.5982 41.2468 74.5984 38.4642 72.5586C35.7532 70.5712 31.5932 67.4757 27.1745 64.0061C15.7101 55.0062 8.55424 48.2751 5.90618 44.0015C4.11284 41.107 2.83338 38.3698 1.99439 35.6343C0.971875 32.3098 0.566363 28.9329 0.748144 25.3113C1.08549 18.6081 3.77025 12.3034 8.30604 7.55964C12.9677 2.68477 19.0713 0 25.4948 0C34.3479 0 41.6244 6.67171 45.4523 11.0607C49.2819 6.67171 56.5584 0 65.4097 0C71.8332 0 77.9386 2.68477 82.5985 7.55964C87.1343 12.3034 89.8173 18.6081 90.1564 25.3113C90.5864 33.8078 87.6272 39.7628 85.0001 44.0015C83.0792 47.1005 78.9856 51.3077 72.4852 56.8642C71.017 58.1192 68.8111 57.9462 67.5561 56.4779C66.3011 55.0097 66.4742 52.8039 67.9424 51.5489C75.2434 45.3089 78.0155 41.9984 79.0555 40.3187C82.2035 35.2375 83.434 30.8538 83.1718 25.6643C82.9184 20.6356 80.9188 15.9216 77.5436 12.3908C74.2139 8.90901 69.9053 6.99158 65.408 6.99158C56.263 6.99158 48.4412 18.5469 48.3625 18.664C48.1003 19.0573 47.7647 19.3876 47.3819 19.6393C46.7947 20.0291 46.0955 20.2371 45.3736 20.2214C44.2287 20.1969 43.1678 19.6131 42.535 18.6588C42.4599 18.5469 34.6381 6.99158 25.4931 6.99158C20.9957 6.99158 16.6872 8.90901 13.3574 12.3908C9.98227 15.9216 7.98268 20.6356 7.72923 25.6643C7.46705 30.8556 8.69756 35.2393 11.8455 40.3204C16.2834 47.4833 38.3611 63.917 45.4435 68.9981C47.3889 67.5998 50.6383 65.2314 54.4469 62.3386C55.9851 61.171 58.1769 61.4699 59.3445 63.0081C60.5121 64.5462 60.2115 66.7381 58.6751 67.9057C55.3838 70.4052 52.5365 72.4939 50.7257 73.8066C49.628 74.6019 48.8222 75.1787 48.3398 75.5212C48.0531 75.7258 47.8294 75.8813 47.6791 75.9879C47.5934 76.0474 47.527 76.0928 47.4833 76.1243C46.7981 76.5927 46.1025 76.778 45.4593 76.778H45.461Z" fill="white"/>
</svg>
