<svg width="27" height="27" viewBox="0 0 27 27" fill="none" xmlns="http://www.w3.org/2000/svg">
<path d="M13.267 6.54452C11.9726 6.54452 10.7073 6.92835 9.63108 7.64747C8.55484 8.36659 7.71601 9.38871 7.22067 10.5846C6.72533 11.7804 6.59573 13.0963 6.84825 14.3658C7.10077 15.6353 7.72408 16.8014 8.63934 17.7167C9.55461 18.632 10.7207 19.2553 11.9902 19.5078C13.2598 19.7603 14.5756 19.6307 15.7715 19.1354C16.9674 18.6401 17.9895 17.8012 18.7086 16.725C19.4277 15.6487 19.8115 14.3834 19.8115 13.089C19.8115 11.3533 19.122 9.6887 17.8947 8.46137C16.6674 7.23403 15.0027 6.54452 13.267 6.54452ZM13.267 17.0158C12.4904 17.0158 11.7312 16.7855 11.0855 16.354C10.4397 15.9225 9.93641 15.3092 9.63921 14.5917C9.34201 13.8742 9.26424 13.0847 9.41576 12.323C9.56727 11.5613 9.94125 10.8616 10.4904 10.3124C11.0396 9.76327 11.7392 9.38929 12.501 9.23778C13.2627 9.08627 14.0522 9.16403 14.7697 9.46123C15.4872 9.75843 16.1005 10.2617 16.532 10.9075C16.9634 11.5532 17.1937 12.3124 17.1937 13.089C17.1937 14.1305 16.78 15.1292 16.0436 15.8656C15.3072 16.602 14.3084 17.0158 13.267 17.0158ZM19.8115 5.23562C19.5527 5.23562 19.2996 5.31238 19.0844 5.45621C18.8691 5.60003 18.7013 5.80445 18.6023 6.04362C18.5032 6.2828 18.4773 6.54597 18.5278 6.79987C18.5783 7.05378 18.7029 7.287 18.886 7.47006C19.0691 7.65311 19.3023 7.77777 19.5562 7.82827C19.8101 7.87878 20.0733 7.85286 20.3124 7.75379C20.5516 7.65472 20.756 7.48696 20.8999 7.27171C21.0437 7.05646 21.1204 6.8034 21.1204 6.54452C21.1204 6.19738 20.9825 5.86445 20.7371 5.61899C20.4916 5.37352 20.1587 5.23562 19.8115 5.23562ZM26.2775 8.16756C26.2558 7.049 26.0434 5.94235 25.6493 4.8953C25.2838 3.94251 24.722 3.07722 24.0004 2.35563C23.2788 1.63404 22.4136 1.07228 21.4608 0.706808C20.4137 0.312696 19.3071 0.10022 18.1885 0.0785342C16.9189 -7.31407e-08 16.5 0 13.267 0C10.034 0 9.61518 -7.31407e-08 8.34554 0.0785342C7.22698 0.10022 6.12033 0.312696 5.07328 0.706808C4.12048 1.07228 3.2552 1.63404 2.53361 2.35563C1.81202 3.07722 1.25025 3.94251 0.884787 4.8953C0.490675 5.94235 0.278198 7.049 0.256513 8.16756C0.177978 9.45029 0.177979 9.86914 0.177979 13.089C0.177979 16.3089 0.177978 16.7278 0.256513 18.0105C0.278198 19.1291 0.490675 20.2357 0.884787 21.2828C1.25025 22.2356 1.81202 23.1009 2.53361 23.8224C3.2552 24.544 4.12048 25.1058 5.07328 25.4713C6.12033 25.8654 7.22698 26.0779 8.34554 26.0995C9.65444 26.0995 10.034 26.1781 13.267 26.1781C16.5 26.1781 16.9189 26.1781 18.1885 26.0995C19.3071 26.0779 20.4137 25.8654 21.4608 25.4713C22.4136 25.1058 23.2788 24.544 24.0004 23.8224C24.722 23.1009 25.2838 22.2356 25.6493 21.2828C26.0434 20.2357 26.2558 19.1291 26.2775 18.0105C26.2775 16.7016 26.3561 16.3089 26.3561 13.089C26.3561 9.86914 26.3561 9.45029 26.2775 8.16756ZM23.6597 17.8927C23.6368 18.7234 23.4821 19.5451 23.2016 20.3273C22.9696 20.9455 22.603 21.5044 22.1283 21.9634C21.672 22.4383 21.1121 22.8012 20.4922 23.0236C19.7081 23.3156 18.8809 23.4749 18.0445 23.4948C16.8141 23.4948 16.4346 23.5603 13.2539 23.5603C10.0733 23.5603 9.7068 23.5603 8.47643 23.5603C7.64138 23.5387 6.81511 23.3841 6.02878 23.1022C5.41053 22.8702 4.85164 22.5036 4.39265 22.0289C3.91772 21.5726 3.55484 21.0126 3.33244 20.3927C3.0416 19.6129 2.88237 18.7902 2.86123 17.9582C2.86123 16.6493 2.86123 16.322 2.86123 13.1545C2.86123 9.98694 2.86123 9.60736 2.86123 8.35081C2.88379 7.51469 3.04296 6.68789 3.33244 5.90316C3.5583 5.2888 3.92083 4.73381 4.39265 4.28012C4.8489 3.80519 5.40889 3.44231 6.02878 3.2199C6.8128 2.92788 7.64003 2.76863 8.47643 2.7487C9.7068 2.61781 10.0864 2.61781 13.267 2.61781C16.4477 2.61781 16.8272 2.61781 18.0576 2.61781C18.8981 2.63918 19.7294 2.79836 20.5183 3.08901C21.1327 3.31487 21.6877 3.67741 22.1414 4.14923C22.6163 4.60548 22.9792 5.16547 23.2016 5.78536C23.522 6.58191 23.7035 7.42748 23.7383 8.28536C23.7383 9.59427 23.8037 9.92149 23.8037 13.089C23.8037 16.2566 23.7383 16.6362 23.7383 17.8927H23.6597Z" fill="black"/>
</svg>
