<svg width="27" height="27" viewBox="0 0 27 27" fill="none" xmlns="http://www.w3.org/2000/svg">
<path d="M24.2424 0.000183022H1.9357C1.68496 -0.00327848 1.43598 0.0423913 1.20299 0.134584C0.969998 0.226777 0.757562 0.363688 0.577811 0.537496C0.398059 0.711305 0.254514 0.918608 0.155372 1.14756C0.0562307 1.37652 0.00343475 1.62265 0 1.87189V24.3062C0.00343475 24.5554 0.0562307 24.8016 0.155372 25.0305C0.254514 25.2595 0.398059 25.4668 0.577811 25.6406C0.757562 25.8144 0.969998 25.9513 1.20299 26.0435C1.43598 26.1357 1.68496 26.1814 1.9357 26.1779H24.2424C24.4931 26.1814 24.7421 26.1357 24.9751 26.0435C25.2081 25.9513 25.4205 25.8144 25.6003 25.6406C25.78 25.4668 25.9236 25.2595 26.0227 25.0305C26.1219 24.8016 26.1746 24.5554 26.1781 24.3062V1.87189C26.1746 1.62265 26.1219 1.37652 26.0227 1.14756C25.9236 0.918608 25.78 0.711305 25.6003 0.537496C25.4205 0.363688 25.2081 0.226777 24.9751 0.134584C24.7421 0.0423913 24.4931 -0.00327848 24.2424 0.000183022ZM7.94033 21.9109H3.98992V10.131H7.94033V21.9109ZM5.96513 8.48176C5.42031 8.48176 4.89782 8.26664 4.51258 7.88371C4.12734 7.50079 3.91091 6.98144 3.91091 6.4399C3.91091 5.89837 4.12734 5.37901 4.51258 4.99609C4.89782 4.61316 5.42031 4.39804 5.96513 4.39804C6.25442 4.36543 6.54739 4.39392 6.82484 4.48166C7.10228 4.56939 7.35796 4.71438 7.57513 4.90715C7.79229 5.09991 7.96605 5.33609 8.08501 5.60023C8.20398 5.86436 8.26548 6.1505 8.26548 6.4399C8.26548 6.7293 8.20398 7.01544 8.08501 7.27957C7.96605 7.54371 7.79229 7.77989 7.57513 7.97266C7.35796 8.16542 7.10228 8.31041 6.82484 8.39815C6.54739 8.48588 6.25442 8.51437 5.96513 8.48176ZM22.1882 21.9109H18.2377V15.589C18.2377 14.0053 17.6715 12.9712 16.2362 12.9712C15.792 12.9745 15.3595 13.113 14.9969 13.3681C14.6343 13.6231 14.3591 13.9826 14.2083 14.3979C14.1053 14.7056 14.0606 15.0296 14.0766 15.3534V21.8978H10.1262C10.1262 21.8978 10.1262 11.1912 10.1262 10.1179H14.0766V11.7802C14.4355 11.1612 14.9575 10.6513 15.5863 10.3053C16.2151 9.95934 16.927 9.79045 17.6452 9.81683C20.2788 9.81683 22.1882 11.5053 22.1882 15.1309V21.9109Z" fill="black"/>
</svg>
