<svg width="78" height="77" viewBox="0 0 78 77" fill="none" xmlns="http://www.w3.org/2000/svg">
<path d="M74.2908 76.778H48.1861C42.6331 76.778 37.2081 75.7215 32.0609 73.6382C26.9239 71.5582 22.298 68.551 18.3138 64.6993L2.91849 50.4432C2.89922 50.4251 2.87995 50.407 2.86068 50.3888C-0.588576 47.0031 -0.641851 41.4421 2.74393 37.9928C6.11724 34.556 11.6499 34.4914 15.1025 37.8398L33.3542 54.5182C34.4639 55.5315 34.541 57.2522 33.5277 58.3619C32.5143 59.4705 30.7936 59.5487 29.6839 58.5353L11.3994 41.8275C11.3756 41.8059 11.3518 41.7833 11.3291 41.7606C10.021 40.4763 7.91158 40.4967 6.62732 41.8048C5.35099 43.1049 5.36232 45.1962 6.64772 46.4828L22.0328 60.7275C22.0475 60.7411 22.0623 60.7547 22.077 60.7695C25.5614 64.1428 29.6069 66.7759 34.1023 68.5952C38.5978 70.4145 43.3359 71.3371 48.1861 71.3371H74.2908C75.7927 71.3371 77.0112 72.5557 77.0112 74.0575C77.0112 75.5594 75.7927 76.778 74.2908 76.778Z" fill="white"/>
<path d="M74.2908 61.6638C72.7889 61.6638 71.5704 60.4452 71.5704 58.9433V55.7877C71.5704 51.7773 68.307 48.5151 64.2967 48.5151H35.2982C33.4654 48.5151 31.9737 50.0068 31.9737 51.8397C31.9737 53.6725 33.4654 55.1642 35.2982 55.1642H50.4113C51.9131 55.1642 53.1317 56.3828 53.1317 57.8847C53.1317 59.3866 51.9131 60.6051 50.4113 60.6051H35.2982C30.465 60.6051 26.5328 56.6729 26.5328 51.8397C26.5328 47.0064 30.465 43.0743 35.2982 43.0743H64.2967C71.3074 43.0743 77.0112 48.7769 77.0112 55.7877V58.9433C77.0112 60.4452 75.7927 61.6638 74.2908 61.6638Z" fill="white"/>
<path d="M55.9699 33.8578C53.1826 33.8578 49.8161 33.1029 46.8543 30.3258C46.4439 29.9416 46.1787 29.4587 46.0631 28.9486C45.8409 28.7446 45.6482 28.4997 45.4986 28.2175C44.6881 26.6907 43.1806 23.849 43.1568 20.2297C43.1307 16.1785 44.9239 12.3258 48.4854 8.77902C57.7212 -0.417104 73.4701 -0.0203775 74.3724 0.0102271C74.3792 0.0102271 74.3848 0.0102271 74.3905 0.0102271C75.8924 0.0657689 77.0644 1.32736 77.0089 2.82925C77.0089 2.83946 77.0089 2.84966 77.0078 2.85986C77.0497 4.96364 77.01 19.6595 68.1902 28.4419C66.1431 30.4811 63.9691 31.9501 61.7281 32.8093C61.311 32.9771 58.9782 33.8578 55.9699 33.8578ZM50.554 26.3381C50.5608 26.3449 50.5676 26.3506 50.5744 26.3574C54.2912 29.8407 59.3614 27.8967 59.6833 27.7686C59.7161 27.7539 59.7252 27.7516 59.7626 27.7369C61.2951 27.1531 62.839 26.0933 64.351 24.588C69.9324 19.0304 71.2088 9.99867 71.491 5.52019C66.9932 5.80017 57.9116 7.07196 52.3234 12.6363C49.7991 15.1493 48.5806 17.6226 48.5965 20.1968C48.6112 22.4808 49.6291 24.3999 50.3035 25.6694C50.418 25.8859 50.5008 26.1103 50.5529 26.3381H50.554Z" fill="white"/>
<path d="M38.0176 45.5861C36.5475 45.5861 35.338 44.4141 35.2995 42.936C35.1816 38.3951 36.8977 34.1808 40.7006 29.6728C43.9901 25.7736 49.0081 21.4447 56.9698 15.6366C58.1838 14.7514 59.8852 15.0177 60.7705 16.2306C61.6558 17.4446 61.3894 19.146 60.1765 20.0312C52.5809 25.5729 47.8565 29.6275 44.8595 33.1799C41.9271 36.6552 40.6564 39.6205 40.7381 42.7931C40.7766 44.295 39.5909 45.5442 38.0891 45.5827C38.0652 45.5827 38.0414 45.5827 38.0176 45.5827V45.5861Z" fill="white"/>
<path d="M19.3657 28.5654C16.1783 28.5654 13.0385 27.305 10.0177 24.8079C1.5912 17.8436 0.37948 4.96472 0.257062 3.30527C0.0870362 1.87705 1.05958 0.555383 2.4878 0.306011C2.55921 0.293543 4.264 0.00109863 6.78605 0.00109863H6.80079C11.243 0.00336564 19.606 0.75828 25.7031 5.79784C29.1093 8.61347 31 11.853 31.3208 15.427C31.6075 18.6201 30.5318 21.235 29.9538 22.6395C29.9175 22.7267 29.8755 22.8288 29.837 22.924C29.8325 23.578 29.5922 24.2105 29.1569 24.7047C26.3141 27.9284 20.5695 28.5065 20.5117 28.511C20.1285 28.5473 19.7465 28.5654 19.3646 28.5654H19.3657ZM6.01753 5.45326C6.67383 9.31624 8.52258 16.5129 13.4839 20.6139C15.7464 22.4842 17.8785 23.2958 20.0016 23.094C21.0795 22.992 23.3148 22.4048 24.5424 21.5638C24.6433 21.2509 24.7748 20.9313 24.9233 20.5685C25.3801 19.4577 26.0704 17.7801 25.9026 15.9132C25.7133 13.8106 24.5141 11.8734 22.2369 9.99068C17.4523 6.03588 10.5107 5.44306 6.79852 5.44079C6.52534 5.43852 6.26464 5.44419 6.01753 5.45212V5.45326ZM28.8509 20.8089C28.8509 20.8089 28.8531 20.81 28.8543 20.8111C28.8543 20.8111 28.852 20.81 28.8509 20.8089Z" fill="white"/>
<path d="M38.1036 46.0226C36.7842 46.0226 35.6269 45.0614 35.4183 43.7182C33.5651 31.7416 28.0177 27.2982 16.966 18.4456C16.4729 18.0511 15.9708 17.6487 15.4585 17.2372C14.2864 16.2964 14.0994 14.5848 15.0402 13.4128C15.981 12.2408 17.6926 12.0537 18.8646 12.9945C19.3758 13.4049 19.8769 13.8061 20.3677 14.1994C31.7492 23.3162 38.6182 28.8183 40.7957 42.8862C41.0258 44.3711 40.0079 45.7608 38.523 45.9909C38.3825 46.0124 38.2419 46.0237 38.1036 46.0237V46.0226Z" fill="white"/>
</svg>
